<mxfile host="Electron" modified="2024-02-03T02:57:06.837Z" agent="Mozilla/5.0 (Macintosh; Intel Mac OS X 10_15_7) AppleWebKit/537.36 (KHTML, like Gecko) draw.io/23.0.2 Chrome/120.0.6099.109 Electron/28.1.0 Safari/537.36" etag="lR_ElD-PVRexZPDFjmJp" version="23.0.2" type="device">
  <diagram id="Awehilcz15Brj6R1_yvu" name="第 1 页">
    <mxGraphModel dx="1122" dy="793" grid="1" gridSize="10" guides="1" tooltips="1" connect="1" arrows="1" fold="1" page="1" pageScale="1" pageWidth="827" pageHeight="1169" math="1" shadow="0">
      <root>
        <mxCell id="0" />
        <mxCell id="1" parent="0" />
        <mxCell id="cTdDrXyc6lTdxKkKWYqh-16" value="" style="group;strokeWidth=0.5;" parent="1" vertex="1" connectable="0">
          <mxGeometry x="80" y="145" width="200" height="175" as="geometry" />
        </mxCell>
        <mxCell id="uy1B8SnLDGP9-7y54yIs-1" value="&lt;font style=&quot;font-size: 20px;&quot; face=&quot;Times New Roman&quot;&gt;0&lt;/font&gt;" style="ellipse;whiteSpace=wrap;html=1;aspect=fixed;strokeWidth=0.5;" parent="cTdDrXyc6lTdxKkKWYqh-16" vertex="1">
          <mxGeometry y="15" width="40" height="40" as="geometry" />
        </mxCell>
        <mxCell id="uy1B8SnLDGP9-7y54yIs-2" value="&lt;font style=&quot;font-size: 20px;&quot; face=&quot;Times New Roman&quot;&gt;2&lt;/font&gt;" style="ellipse;whiteSpace=wrap;html=1;aspect=fixed;strokeWidth=0.5;" parent="cTdDrXyc6lTdxKkKWYqh-16" vertex="1">
          <mxGeometry x="80" y="95" width="40" height="40" as="geometry" />
        </mxCell>
        <mxCell id="uy1B8SnLDGP9-7y54yIs-3" value="&lt;font style=&quot;font-size: 20px;&quot; face=&quot;Times New Roman&quot;&gt;1&lt;/font&gt;" style="ellipse;whiteSpace=wrap;html=1;aspect=fixed;strokeWidth=0.5;" parent="cTdDrXyc6lTdxKkKWYqh-16" vertex="1">
          <mxGeometry x="160" y="15" width="40" height="40" as="geometry" />
        </mxCell>
        <mxCell id="uy1B8SnLDGP9-7y54yIs-4" value="" style="endArrow=classic;html=1;rounded=0;strokeWidth=0.5;" parent="cTdDrXyc6lTdxKkKWYqh-16" edge="1">
          <mxGeometry width="50" height="50" relative="1" as="geometry">
            <mxPoint x="40" y="38" as="sourcePoint" />
            <mxPoint x="160" y="38" as="targetPoint" />
          </mxGeometry>
        </mxCell>
        <mxCell id="uy1B8SnLDGP9-7y54yIs-5" value="" style="endArrow=classic;html=1;rounded=0;strokeWidth=0.5;" parent="cTdDrXyc6lTdxKkKWYqh-16" edge="1">
          <mxGeometry width="50" height="50" relative="1" as="geometry">
            <mxPoint x="160" y="31" as="sourcePoint" />
            <mxPoint x="40" y="31" as="targetPoint" />
          </mxGeometry>
        </mxCell>
        <mxCell id="uy1B8SnLDGP9-7y54yIs-6" value="" style="endArrow=classic;html=1;rounded=0;strokeWidth=0.5;" parent="cTdDrXyc6lTdxKkKWYqh-16" source="uy1B8SnLDGP9-7y54yIs-2" target="uy1B8SnLDGP9-7y54yIs-3" edge="1">
          <mxGeometry width="50" height="50" relative="1" as="geometry">
            <mxPoint x="60" y="55" as="sourcePoint" />
            <mxPoint x="180" y="55" as="targetPoint" />
          </mxGeometry>
        </mxCell>
        <mxCell id="uy1B8SnLDGP9-7y54yIs-7" value="" style="endArrow=classic;html=1;rounded=0;strokeWidth=0.5;" parent="cTdDrXyc6lTdxKkKWYqh-16" edge="1">
          <mxGeometry width="50" height="50" relative="1" as="geometry">
            <mxPoint x="37.14213562373095" y="47.14213562373101" as="sourcePoint" />
            <mxPoint x="88.85786437626905" y="98.85786437626899" as="targetPoint" />
          </mxGeometry>
        </mxCell>
        <mxCell id="uy1B8SnLDGP9-7y54yIs-8" value="" style="endArrow=classic;html=1;rounded=0;strokeWidth=0.5;" parent="cTdDrXyc6lTdxKkKWYqh-16" edge="1">
          <mxGeometry width="50" height="50" relative="1" as="geometry">
            <mxPoint x="82.85786437626905" y="101.85786437626899" as="sourcePoint" />
            <mxPoint x="31.14213562373095" y="50.14213562373101" as="targetPoint" />
          </mxGeometry>
        </mxCell>
        <mxCell id="uy1B8SnLDGP9-7y54yIs-9" value="&lt;font style=&quot;font-size: 20px;&quot; face=&quot;Times New Roman&quot;&gt;3&lt;/font&gt;" style="text;html=1;align=center;verticalAlign=middle;resizable=0;points=[];autosize=1;strokeColor=none;fillColor=none;strokeWidth=0.5;" parent="cTdDrXyc6lTdxKkKWYqh-16" vertex="1">
          <mxGeometry x="85" width="30" height="40" as="geometry" />
        </mxCell>
        <mxCell id="uy1B8SnLDGP9-7y54yIs-10" value="&lt;font style=&quot;font-size: 20px;&quot; face=&quot;Times New Roman&quot;&gt;8&lt;/font&gt;" style="text;html=1;align=center;verticalAlign=middle;resizable=0;points=[];autosize=1;strokeColor=none;fillColor=none;strokeWidth=0.5;" parent="cTdDrXyc6lTdxKkKWYqh-16" vertex="1">
          <mxGeometry x="85" y="28" width="30" height="40" as="geometry" />
        </mxCell>
        <mxCell id="uy1B8SnLDGP9-7y54yIs-11" value="&lt;font style=&quot;font-size: 20px;&quot; face=&quot;Times New Roman&quot;&gt;5&lt;/font&gt;" style="text;html=1;align=center;verticalAlign=middle;resizable=0;points=[];autosize=1;strokeColor=none;fillColor=none;strokeWidth=0.5;" parent="cTdDrXyc6lTdxKkKWYqh-16" vertex="1">
          <mxGeometry x="58" y="46" width="30" height="40" as="geometry" />
        </mxCell>
        <mxCell id="uy1B8SnLDGP9-7y54yIs-12" value="&lt;font style=&quot;font-size: 20px;&quot; face=&quot;Times New Roman&quot;&gt;6&lt;/font&gt;" style="text;html=1;align=center;verticalAlign=middle;resizable=0;points=[];autosize=1;strokeColor=none;fillColor=none;strokeWidth=0.5;" parent="cTdDrXyc6lTdxKkKWYqh-16" vertex="1">
          <mxGeometry x="34" y="66" width="30" height="40" as="geometry" />
        </mxCell>
        <mxCell id="uy1B8SnLDGP9-7y54yIs-13" value="&lt;font style=&quot;font-size: 20px;&quot; face=&quot;Times New Roman&quot;&gt;2&lt;/font&gt;" style="text;html=1;align=center;verticalAlign=middle;resizable=0;points=[];autosize=1;strokeColor=none;fillColor=none;strokeWidth=0.5;" parent="cTdDrXyc6lTdxKkKWYqh-16" vertex="1">
          <mxGeometry x="116" y="47" width="30" height="40" as="geometry" />
        </mxCell>
        <mxCell id="cTdDrXyc6lTdxKkKWYqh-10" value="&lt;span style=&quot;font-size: 20px;&quot;&gt;&lt;font face=&quot;Times New Roman&quot;&gt;(a)&amp;nbsp;&lt;/font&gt;&lt;font face=&quot;SimSun&quot;&gt;一个加权有向图&lt;/font&gt;&lt;/span&gt;" style="text;html=1;align=center;verticalAlign=middle;resizable=0;points=[];autosize=1;strokeColor=none;fillColor=none;strokeWidth=0.5;" parent="cTdDrXyc6lTdxKkKWYqh-16" vertex="1">
          <mxGeometry x="5" y="135" width="190" height="40" as="geometry" />
        </mxCell>
        <mxCell id="cTdDrXyc6lTdxKkKWYqh-20" value="" style="group;strokeWidth=0.5;" parent="1" vertex="1" connectable="0">
          <mxGeometry x="291" y="350" width="200" height="140" as="geometry" />
        </mxCell>
        <mxCell id="cTdDrXyc6lTdxKkKWYqh-9" value="&lt;font style=&quot;font-size: 20px;&quot;&gt;$$&lt;br&gt;\begin{bmatrix}&lt;br&gt;0 &amp;amp; 7 &amp;amp; 5\\&lt;br&gt;3 &amp;amp; 0 &amp;amp; 8\\&lt;br&gt;5&amp;amp; 2 &amp;amp; 0&amp;nbsp;&lt;br&gt;\end{bmatrix}&lt;br&gt;$$&lt;/font&gt;" style="text;html=1;strokeColor=none;fillColor=none;align=center;verticalAlign=middle;whiteSpace=wrap;rounded=0;fontSize=19;fontFamily=Times New Roman;strokeWidth=0.5;" parent="cTdDrXyc6lTdxKkKWYqh-20" vertex="1">
          <mxGeometry y="-8" width="200" height="120" as="geometry" />
        </mxCell>
        <mxCell id="cTdDrXyc6lTdxKkKWYqh-15" value="&lt;font style=&quot;&quot; face=&quot;Times New Roman&quot;&gt;&lt;span style=&quot;font-size: 20px;&quot;&gt;(e) d&lt;sub&gt;2&lt;/sub&gt;&lt;/span&gt;&lt;/font&gt;&lt;font style=&quot;font-size: 20px;&quot; face=&quot;SimSun&quot;&gt;矩阵&lt;/font&gt;" style="text;html=1;align=center;verticalAlign=middle;resizable=0;points=[];autosize=1;strokeColor=none;fillColor=none;strokeWidth=0.5;" parent="cTdDrXyc6lTdxKkKWYqh-20" vertex="1">
          <mxGeometry x="45" y="100" width="110" height="40" as="geometry" />
        </mxCell>
        <mxCell id="cTdDrXyc6lTdxKkKWYqh-21" value="" style="group;strokeWidth=0.5;" parent="1" vertex="1" connectable="0">
          <mxGeometry x="80" y="350" width="200" height="140" as="geometry" />
        </mxCell>
        <mxCell id="cTdDrXyc6lTdxKkKWYqh-8" value="&lt;font style=&quot;font-size: 20px;&quot;&gt;$$&lt;br&gt;\begin{bmatrix}&lt;br&gt;0 &amp;amp; 8 &amp;amp; 5 \\&lt;br&gt;3 &amp;amp; 0 &amp;amp; 8\\&lt;br&gt;5 &amp;amp; 2 &amp;amp; 0&amp;nbsp;&lt;br&gt;\end{bmatrix}&lt;br&gt;$$&lt;/font&gt;" style="text;html=1;strokeColor=none;fillColor=none;align=center;verticalAlign=middle;whiteSpace=wrap;rounded=0;fontSize=19;fontFamily=Times New Roman;strokeWidth=0.5;" parent="cTdDrXyc6lTdxKkKWYqh-21" vertex="1">
          <mxGeometry y="-8" width="200" height="120" as="geometry" />
        </mxCell>
        <mxCell id="cTdDrXyc6lTdxKkKWYqh-14" value="&lt;font style=&quot;&quot; face=&quot;Times New Roman&quot;&gt;&lt;span style=&quot;font-size: 20px;&quot;&gt;(d) d&lt;sub&gt;1&lt;/sub&gt;&lt;/span&gt;&lt;/font&gt;&lt;font style=&quot;font-size: 20px;&quot; face=&quot;SimSun&quot;&gt;矩阵&lt;/font&gt;" style="text;html=1;align=center;verticalAlign=middle;resizable=0;points=[];autosize=1;strokeColor=none;fillColor=none;strokeWidth=0.5;" parent="cTdDrXyc6lTdxKkKWYqh-21" vertex="1">
          <mxGeometry x="45" y="100" width="110" height="40" as="geometry" />
        </mxCell>
        <mxCell id="cTdDrXyc6lTdxKkKWYqh-2" value="&lt;font style=&quot;font-size: 20px;&quot;&gt;$$&lt;br&gt;\begin{bmatrix}&lt;br&gt;0 &amp;amp; 8 &amp;amp; 5 \\&lt;br&gt;3 &amp;amp; 0 &amp;amp; \infty \\&lt;br&gt;6 &amp;amp; 2 &amp;amp; 0&amp;nbsp;&lt;br&gt;\end{bmatrix}&lt;br&gt;$$&lt;/font&gt;" style="text;html=1;strokeColor=none;fillColor=none;align=center;verticalAlign=middle;whiteSpace=wrap;rounded=0;fontSize=19;fontFamily=Times New Roman;strokeWidth=0.5;" parent="1" vertex="1">
          <mxGeometry x="291" y="156" width="200" height="120" as="geometry" />
        </mxCell>
        <mxCell id="cTdDrXyc6lTdxKkKWYqh-11" value="&lt;span style=&quot;font-size: 20px;&quot;&gt;&lt;font face=&quot;Times New Roman&quot;&gt;(b) d&lt;/font&gt;&lt;font face=&quot;SimSun&quot;&gt;的原始矩阵&lt;/font&gt;&lt;/span&gt;" style="text;html=1;align=center;verticalAlign=middle;resizable=0;points=[];autosize=1;strokeColor=none;fillColor=none;strokeWidth=0.5;" parent="1" vertex="1">
          <mxGeometry x="311" y="276" width="160" height="40" as="geometry" />
        </mxCell>
        <mxCell id="cTdDrXyc6lTdxKkKWYqh-7" value="&lt;font style=&quot;font-size: 20px;&quot;&gt;$$&lt;br&gt;\begin{bmatrix}&lt;br&gt;0 &amp;amp; 8 &amp;amp; 5 \\&lt;br&gt;3 &amp;amp; 0 &amp;amp; 8\\&lt;br&gt;6 &amp;amp; 2 &amp;amp; 0&amp;nbsp;&lt;br&gt;\end{bmatrix}&lt;br&gt;$$&lt;/font&gt;" style="text;html=1;strokeColor=none;fillColor=none;align=center;verticalAlign=middle;whiteSpace=wrap;rounded=0;fontSize=19;fontFamily=Times New Roman;strokeWidth=0.5;" parent="1" vertex="1">
          <mxGeometry x="470" y="156" width="200" height="120" as="geometry" />
        </mxCell>
        <mxCell id="cTdDrXyc6lTdxKkKWYqh-13" value="&lt;span style=&quot;font-size: 20px;&quot;&gt;&lt;font face=&quot;Times New Roman&quot;&gt;(c) d&lt;sub&gt;0&lt;/sub&gt;&lt;/font&gt;&lt;font face=&quot;SimSun&quot;&gt;矩阵&lt;/font&gt;&lt;/span&gt;" style="text;html=1;align=center;verticalAlign=middle;resizable=0;points=[];autosize=1;strokeColor=none;fillColor=none;strokeWidth=0.5;" parent="1" vertex="1">
          <mxGeometry x="515" y="276" width="110" height="40" as="geometry" />
        </mxCell>
      </root>
    </mxGraphModel>
  </diagram>
</mxfile>
